<svg xmlns="http://www.w3.org/2000/svg" width="1600" height="900" viewBox="0 0 1600 900"><defs><linearGradient id="bg" x1="0" y1="0" x2="1" y2="1"><stop offset="0" stop-color="#080d14"/><stop offset="1" stop-color="#122033"/></linearGradient></defs><rect width="1600" height="900" fill="url(#bg)"/><circle cx="1490" cy="100" r="230" fill="#63e6c2" opacity=".05"/><circle cx="120" cy="810" r="240" fill="#ff8a6d" opacity=".035"/><rect x="60" y="60" width="1480" height="780" rx="40" fill="#0c141e" stroke="#273646"/><text x="120" y="145" fill="#63e6c2" font-size="22" font-weight="700" letter-spacing="3" font-family="Arial">MACHINE LEARNING</text><text x="120" y="220" fill="#f4f6f8" font-size="48" font-weight="700" font-family="Arial">HOTEL BOOKING CANCELLATION PREDICTION</text><text x="120" y="275" fill="#91a0b0" font-size="23" font-family="Arial">Risk scoring • classification</text><rect x="120" y="330" width="610" height="2" fill="#273646"/><rect x="120" y="375" width="610" height="150" rx="24" fill="#111a24" stroke="#263444"/><text x="155" y="420" fill="#76879a" font-size="16" font-weight="700" letter-spacing="2" font-family="Arial">PORTFOLIO CASE STUDY</text><text x="155" y="466" fill="#f4f6f8" font-size="27" font-weight="700" font-family="Arial">Data → insight → decision support</text><text x="155" y="503" fill="#91a0b0" font-size="18" font-family="Arial">Clear storytelling built for recruiters and hiring teams.</text><rect x="120" y="585" width="180" height="44" rx="22" fill="#10332d" stroke="#2f7667"/><text x="210" y="613" text-anchor="middle" fill="#63e6c2" font-size="16" font-weight="700" font-family="Arial">1600 × 900 HD</text><rect x="900" y="255" width="520" height="390" rx="26" fill="#111a24" stroke="#263444"/><text x="940" y="305" fill="#91a0b0" font-size="21" font-family="Arial">Cancellation risk</text><text x="940" y="365" fill="#f5f7f9" font-size="53" font-weight="700" font-family="Arial">78.4%</text><text x="940" y="398" fill="#63e6c2" font-size="18" font-family="Arial">model recall / decision support</text><rect x="940" y="445" width="430" height="18" rx="9" fill="#263444"/><rect x="940" y="445" width="337" height="18" rx="9" fill="#63e6c2"/><circle cx="1040" cy="550" r="54" fill="#17212c" stroke="#63e6c2" stroke-width="10"/><text x="1040" y="559" text-anchor="middle" fill="#f5f7f9" font-size="25" font-weight="700" font-family="Arial">ML</text><rect x="1140" y="500" width="64" height="95" rx="10" fill="#24303d"/><rect x="1225" y="465" width="64" height="130" rx="10" fill="#24303d"/><rect x="1310" y="430" width="64" height="165" rx="10" fill="#24303d"/><text x="120" y="765" fill="#5f7082" font-size="16" letter-spacing="1" font-family="Arial">BRIAN NAUFAL • DATA ANALYST / MACHINE LEARNING</text></svg>